<mxfile host="Electron" modified="2023-11-28T11:04:15.187Z" agent="Mozilla/5.0 (Windows NT 10.0; Win64; x64) AppleWebKit/537.36 (KHTML, like Gecko) draw.io/22.0.2 Chrome/114.0.5735.289 Electron/25.8.4 Safari/537.36" etag="4yMK9W1ur9-27FlCXlGi" version="22.0.2" type="device">
  <diagram name="Страница — 1" id="VeCpQu5-D8wf3EI5451r">
    <mxGraphModel dx="1036" dy="606" grid="1" gridSize="10" guides="1" tooltips="1" connect="1" arrows="1" fold="1" page="1" pageScale="1" pageWidth="827" pageHeight="1169" math="0" shadow="0">
      <root>
        <mxCell id="0" />
        <mxCell id="1" parent="0" />
        <mxCell id="WKvkoyztI8IwC7QM5Nje-17" value="File" style="swimlane;fontStyle=1;align=center;verticalAlign=top;childLayout=stackLayout;horizontal=1;startSize=26;horizontalStack=0;resizeParent=1;resizeParentMax=0;resizeLast=0;collapsible=1;marginBottom=0;whiteSpace=wrap;html=1;" vertex="1" parent="1">
          <mxGeometry x="110" y="130" width="160" height="110" as="geometry" />
        </mxCell>
        <mxCell id="WKvkoyztI8IwC7QM5Nje-18" value="Имя&lt;br&gt;Размер" style="text;strokeColor=none;fillColor=none;align=left;verticalAlign=top;spacingLeft=4;spacingRight=4;overflow=hidden;rotatable=0;points=[[0,0.5],[1,0.5]];portConstraint=eastwest;whiteSpace=wrap;html=1;" vertex="1" parent="WKvkoyztI8IwC7QM5Nje-17">
          <mxGeometry y="26" width="160" height="34" as="geometry" />
        </mxCell>
        <mxCell id="WKvkoyztI8IwC7QM5Nje-19" value="" style="line;strokeWidth=1;fillColor=none;align=left;verticalAlign=middle;spacingTop=-1;spacingLeft=3;spacingRight=3;rotatable=0;labelPosition=right;points=[];portConstraint=eastwest;strokeColor=inherit;" vertex="1" parent="WKvkoyztI8IwC7QM5Nje-17">
          <mxGeometry y="60" width="160" height="8" as="geometry" />
        </mxCell>
        <mxCell id="WKvkoyztI8IwC7QM5Nje-20" value="__init__()&lt;br&gt;__str__()" style="text;strokeColor=none;fillColor=none;align=left;verticalAlign=top;spacingLeft=4;spacingRight=4;overflow=hidden;rotatable=0;points=[[0,0.5],[1,0.5]];portConstraint=eastwest;whiteSpace=wrap;html=1;" vertex="1" parent="WKvkoyztI8IwC7QM5Nje-17">
          <mxGeometry y="68" width="160" height="42" as="geometry" />
        </mxCell>
        <mxCell id="WKvkoyztI8IwC7QM5Nje-21" value="ReadableFile" style="swimlane;fontStyle=1;align=center;verticalAlign=top;childLayout=stackLayout;horizontal=1;startSize=26;horizontalStack=0;resizeParent=1;resizeParentMax=0;resizeLast=0;collapsible=1;marginBottom=0;whiteSpace=wrap;html=1;" vertex="1" parent="1">
          <mxGeometry x="10" y="280" width="160" height="100" as="geometry" />
        </mxCell>
        <mxCell id="WKvkoyztI8IwC7QM5Nje-22" value="Разрешение_на_чтение" style="text;strokeColor=none;fillColor=none;align=left;verticalAlign=top;spacingLeft=4;spacingRight=4;overflow=hidden;rotatable=0;points=[[0,0.5],[1,0.5]];portConstraint=eastwest;whiteSpace=wrap;html=1;" vertex="1" parent="WKvkoyztI8IwC7QM5Nje-21">
          <mxGeometry y="26" width="160" height="26" as="geometry" />
        </mxCell>
        <mxCell id="WKvkoyztI8IwC7QM5Nje-23" value="" style="line;strokeWidth=1;fillColor=none;align=left;verticalAlign=middle;spacingTop=-1;spacingLeft=3;spacingRight=3;rotatable=0;labelPosition=right;points=[];portConstraint=eastwest;strokeColor=inherit;" vertex="1" parent="WKvkoyztI8IwC7QM5Nje-21">
          <mxGeometry y="52" width="160" height="8" as="geometry" />
        </mxCell>
        <mxCell id="WKvkoyztI8IwC7QM5Nje-24" value="__init__()&lt;br style=&quot;border-color: var(--border-color);&quot;&gt;__str__()" style="text;strokeColor=none;fillColor=none;align=left;verticalAlign=top;spacingLeft=4;spacingRight=4;overflow=hidden;rotatable=0;points=[[0,0.5],[1,0.5]];portConstraint=eastwest;whiteSpace=wrap;html=1;" vertex="1" parent="WKvkoyztI8IwC7QM5Nje-21">
          <mxGeometry y="60" width="160" height="40" as="geometry" />
        </mxCell>
        <mxCell id="WKvkoyztI8IwC7QM5Nje-25" value="WritableFile" style="swimlane;fontStyle=1;align=center;verticalAlign=top;childLayout=stackLayout;horizontal=1;startSize=26;horizontalStack=0;resizeParent=1;resizeParentMax=0;resizeLast=0;collapsible=1;marginBottom=0;whiteSpace=wrap;html=1;" vertex="1" parent="1">
          <mxGeometry x="220" y="280" width="160" height="100" as="geometry" />
        </mxCell>
        <mxCell id="WKvkoyztI8IwC7QM5Nje-26" value="Разрешение_на_запись" style="text;strokeColor=none;fillColor=none;align=left;verticalAlign=top;spacingLeft=4;spacingRight=4;overflow=hidden;rotatable=0;points=[[0,0.5],[1,0.5]];portConstraint=eastwest;whiteSpace=wrap;html=1;" vertex="1" parent="WKvkoyztI8IwC7QM5Nje-25">
          <mxGeometry y="26" width="160" height="26" as="geometry" />
        </mxCell>
        <mxCell id="WKvkoyztI8IwC7QM5Nje-27" value="" style="line;strokeWidth=1;fillColor=none;align=left;verticalAlign=middle;spacingTop=-1;spacingLeft=3;spacingRight=3;rotatable=0;labelPosition=right;points=[];portConstraint=eastwest;strokeColor=inherit;" vertex="1" parent="WKvkoyztI8IwC7QM5Nje-25">
          <mxGeometry y="52" width="160" height="8" as="geometry" />
        </mxCell>
        <mxCell id="WKvkoyztI8IwC7QM5Nje-37" style="edgeStyle=orthogonalEdgeStyle;rounded=0;orthogonalLoop=1;jettySize=auto;html=1;exitX=0;exitY=0.5;exitDx=0;exitDy=0;endArrow=diamondThin;endFill=0;" edge="1" parent="WKvkoyztI8IwC7QM5Nje-25" source="WKvkoyztI8IwC7QM5Nje-28">
          <mxGeometry relative="1" as="geometry">
            <mxPoint x="-30" y="140" as="targetPoint" />
          </mxGeometry>
        </mxCell>
        <mxCell id="WKvkoyztI8IwC7QM5Nje-28" value="__init__()&lt;br style=&quot;border-color: var(--border-color);&quot;&gt;__str__()" style="text;strokeColor=none;fillColor=none;align=left;verticalAlign=top;spacingLeft=4;spacingRight=4;overflow=hidden;rotatable=0;points=[[0,0.5],[1,0.5]];portConstraint=eastwest;whiteSpace=wrap;html=1;" vertex="1" parent="WKvkoyztI8IwC7QM5Nje-25">
          <mxGeometry y="60" width="160" height="40" as="geometry" />
        </mxCell>
        <mxCell id="WKvkoyztI8IwC7QM5Nje-29" value="ReadWriteFile" style="swimlane;fontStyle=1;align=center;verticalAlign=top;childLayout=stackLayout;horizontal=1;startSize=26;horizontalStack=0;resizeParent=1;resizeParentMax=0;resizeLast=0;collapsible=1;marginBottom=0;whiteSpace=wrap;html=1;" vertex="1" parent="1">
          <mxGeometry x="110" y="420" width="160" height="86" as="geometry" />
        </mxCell>
        <mxCell id="WKvkoyztI8IwC7QM5Nje-30" value="&lt;br&gt;" style="text;strokeColor=none;fillColor=none;align=left;verticalAlign=top;spacingLeft=4;spacingRight=4;overflow=hidden;rotatable=0;points=[[0,0.5],[1,0.5]];portConstraint=eastwest;whiteSpace=wrap;html=1;" vertex="1" parent="WKvkoyztI8IwC7QM5Nje-29">
          <mxGeometry y="26" width="160" height="26" as="geometry" />
        </mxCell>
        <mxCell id="WKvkoyztI8IwC7QM5Nje-31" value="" style="line;strokeWidth=1;fillColor=none;align=left;verticalAlign=middle;spacingTop=-1;spacingLeft=3;spacingRight=3;rotatable=0;labelPosition=right;points=[];portConstraint=eastwest;strokeColor=inherit;" vertex="1" parent="WKvkoyztI8IwC7QM5Nje-29">
          <mxGeometry y="52" width="160" height="8" as="geometry" />
        </mxCell>
        <mxCell id="WKvkoyztI8IwC7QM5Nje-32" value="&lt;br&gt;" style="text;strokeColor=none;fillColor=none;align=left;verticalAlign=top;spacingLeft=4;spacingRight=4;overflow=hidden;rotatable=0;points=[[0,0.5],[1,0.5]];portConstraint=eastwest;whiteSpace=wrap;html=1;" vertex="1" parent="WKvkoyztI8IwC7QM5Nje-29">
          <mxGeometry y="60" width="160" height="26" as="geometry" />
        </mxCell>
        <mxCell id="WKvkoyztI8IwC7QM5Nje-34" style="edgeStyle=orthogonalEdgeStyle;rounded=0;orthogonalLoop=1;jettySize=auto;html=1;exitX=0;exitY=0.5;exitDx=0;exitDy=0;entryX=0.5;entryY=0;entryDx=0;entryDy=0;endArrow=diamondThin;endFill=0;" edge="1" parent="1" source="WKvkoyztI8IwC7QM5Nje-20" target="WKvkoyztI8IwC7QM5Nje-21">
          <mxGeometry relative="1" as="geometry" />
        </mxCell>
        <mxCell id="WKvkoyztI8IwC7QM5Nje-35" style="edgeStyle=orthogonalEdgeStyle;rounded=0;orthogonalLoop=1;jettySize=auto;html=1;exitX=1;exitY=0.5;exitDx=0;exitDy=0;entryX=0.5;entryY=0;entryDx=0;entryDy=0;endArrow=diamondThin;endFill=0;" edge="1" parent="1" source="WKvkoyztI8IwC7QM5Nje-20" target="WKvkoyztI8IwC7QM5Nje-25">
          <mxGeometry relative="1" as="geometry" />
        </mxCell>
        <mxCell id="WKvkoyztI8IwC7QM5Nje-36" style="edgeStyle=orthogonalEdgeStyle;rounded=0;orthogonalLoop=1;jettySize=auto;html=1;exitX=1;exitY=0.5;exitDx=0;exitDy=0;entryX=0.5;entryY=0;entryDx=0;entryDy=0;endArrow=diamondThin;endFill=0;" edge="1" parent="1" source="WKvkoyztI8IwC7QM5Nje-24" target="WKvkoyztI8IwC7QM5Nje-29">
          <mxGeometry relative="1" as="geometry" />
        </mxCell>
      </root>
    </mxGraphModel>
  </diagram>
</mxfile>
